<?xml version="1.0" encoding="utf-8"?>
<!-- Generator: Adobe Illustrator 19.0.0, SVG Export Plug-In . SVG Version: 6.00 Build 0)  -->
<svg version="1.1" xmlns="http://www.w3.org/2000/svg" xmlns:xlink="http://www.w3.org/1999/xlink" x="0px" y="0px"
	 viewBox="0 0 485.2 242.6" style="enable-background:new 0 0 485.2 242.6;" xml:space="preserve">
<style type="text/css">
	.st0{fill:#3C3C3B;}
	.st1{fill:url(#SVGID_1_);}
	.st2{fill:url(#SVGID_2_);}
	.st3{fill:none;}
	.st4{fill:#1A1A1A;}
</style>
<g id="Guides_For_Artboard">
</g>
<g id="Layer_1">
	<path class="st0" d="M170.3,199.3L137,146.5c12.4-5,21.1-17.2,21.1-31.3c0-18.6-15-33.6-33.5-33.8v0h-0.3H15.4V101h63.4h14.6h28.7
		c0.6,0,1.2,0,1.7,0.1c1.4,0.1,2.7,0.5,3.9,1c0.1,0,0.2,0.1,0.3,0.1c0.3,0.1,0.6,0.3,0.9,0.4c0.2,0.1,0.3,0.1,0.5,0.2
		c0.3,0.1,0.5,0.3,0.8,0.4c0.2,0.1,0.3,0.2,0.5,0.3c0.2,0.2,0.5,0.3,0.7,0.5c0.2,0.1,0.3,0.2,0.5,0.4c0.2,0.2,0.4,0.3,0.6,0.5
		c0.2,0.1,0.3,0.3,0.5,0.4c0.2,0.2,0.4,0.4,0.5,0.5c0.2,0.2,0.3,0.3,0.5,0.5c0.2,0.2,0.3,0.4,0.5,0.6c0.1,0.2,0.3,0.4,0.4,0.6
		c0.1,0.2,0.3,0.4,0.4,0.6c0.1,0.2,0.3,0.4,0.4,0.6c0.1,0.2,0.2,0.4,0.3,0.6c0.1,0.2,0.2,0.5,0.3,0.7c0.1,0.2,0.2,0.4,0.3,0.6
		c0.1,0.3,0.2,0.5,0.3,0.8c0.1,0.2,0.1,0.4,0.2,0.6c0.1,0.3,0.2,0.6,0.2,0.9c0,0.2,0.1,0.4,0.1,0.6c0.1,0.3,0.1,0.7,0.2,1
		c0,0.2,0.1,0.3,0.1,0.5c0.1,0.5,0.1,1,0.1,1.6c0,8.7-7,15.7-15.7,15.7c-0.8,0-1.6-0.1-2.4-0.2c-0.1,0-0.3,0-0.4-0.1
		c-0.8-0.1-1.5-0.3-2.2-0.6c-0.1,0-0.2-0.1-0.4-0.1c-1.5-0.5-2.9-1.3-4.1-2.3c0,0-0.1-0.1-0.1-0.1c-0.6-0.5-1.2-1-1.8-1.6
		c0,0-0.1-0.1-0.1-0.1c-1.7-1.8-3-4.1-3.6-6.6c0,0,0,0,0,0H90.8c2,12.1,10.4,22,21.7,26.2l40.2,63.5L170.3,199.3z"/>
	<g>
		<linearGradient id="SVGID_1_" gradientUnits="userSpaceOnUse" x1="38.0196" y1="112.2281" x2="207.2679" y2="112.2281">
			<stop  offset="0" style="stop-color:#BE1622"/>
			<stop  offset="1" style="stop-color:#F39200"/>
		</linearGradient>
		<path class="st1" d="M117.3,49.4c39.4,0,71.4,32,71.4,71.4c0,23.4-11.3,44.1-28.7,57.2l10,15.7c22.6-16.4,37.3-42.9,37.3-72.9
			c0-49.6-40.4-90-90-90c-34.2,0-64,19.2-79.2,47.4h22C73.1,60.7,93.9,49.4,117.3,49.4z"/>
		<linearGradient id="SVGID_2_" gradientUnits="userSpaceOnUse" x1="146.9157" y1="157.4843" x2="27.2509" y2="157.4843">
			<stop  offset="0" style="stop-color:#E6007E"/>
			<stop  offset="1" style="stop-color:#BE1622"/>
		</linearGradient>
		<path class="st2" d="M136.6,189.5c-6.2,1.7-12.6,2.7-19.4,2.7c-39.4,0-71.4-32-71.4-71.4c0-5.7,0.7-11.3,2-16.6h-19
			c-1,5.4-1.6,10.9-1.6,16.6c0,49.6,40.4,90,90,90c10.4,0,20.4-1.8,29.7-5L136.6,189.5z"/>
	</g>
	<g>
		<path class="st3" d="M-44.2-18.8v283.5h566.9V-18.8H-44.2z M417.4,112.1h3.3v17.3h-3.3V112.1z M273.7,136c-5,3.8-11,5.7-17.8,5.7
			c-9.3,0-16.7-3.3-22.2-9.8c-5.2-6.1-7.8-13.8-7.8-23.1c0-9.4,2.6-17.2,7.9-23.5c5.6-6.8,13.3-10.1,23-10.1
			c6.6,0,12.3,1.8,17.3,5.4c5.3,3.8,8.3,8.8,9.1,15h-3.5c-0.7-5.2-3.4-9.4-7.9-12.6c-4.4-3.1-9.3-4.5-15-4.5c-8.5,0-15.3,3-20.3,8.9
			c-4.7,5.7-7,12.8-7,21.4s2.3,15.6,7,21.1c4.8,5.7,11.2,8.5,19.5,8.5c5.9,0,11.1-1.6,15.5-4.8c4.8-3.6,7.9-8.6,9.1-14.9h3.5
			C282.5,126.1,279.1,131.8,273.7,136z M340.5,140.4c-1.3-2.3-2-5.3-2.4-9l-0.8-9.4c-0.4-4.2-2-7.2-4.9-9.1
			c-2.6-1.6-6.1-2.5-10.6-2.5h-23.4v29.9h-3.6v-33.2h3.6h7.1h16.2c5.5,0,9.7-1.4,12.7-4.1c2.7-2.6,4.2-6,4.2-10.3
			c0-4.7-1.4-8.2-3.9-10.6c-2.9-2.6-7.2-3.7-13.1-3.7h-16.1h-7.1h-7v-3.3h30.5c6.3,0,11.2,1.5,14.9,4.6c3.6,3,5.4,7.3,5.4,13
			c0,4-1.1,7.5-3.3,10.4c-2.3,2.9-5.5,4.8-9.5,5.7v0.2c6.9,1.5,10.8,5.6,11.4,12.3l0.8,9.5c0.4,4,1.3,7.2,2.8,9.6H340.5z
			 M403.9,114.9c0,8.5-1.9,15-5.8,19.5c-4.1,4.8-10.4,7.3-19,7.3c-8.5,0-14.8-2.5-18.9-7.2c-3.8-4.6-5.8-11.1-5.8-19.6V75.1h3.6V115
			c0,7.5,1.6,13.2,4.8,17c3.5,4.2,8.9,6.4,16.3,6.4c7.4,0,12.9-2.2,16.4-6.4c3.2-3.8,4.8-9.5,4.8-17V75.1h3.6V114.9z M461.8,131.3
			c-5.5,6-13.3,9.1-23.1,9.1h-21.3v-3.3h3.6h9.3h8.1c9,0,15.9-2.7,20.8-8c4.7-5.2,7-12.3,7-21.3c0-9.4-2-16.6-5.9-21.4
			c-4.4-5.3-11.1-8-20.2-8h-9.8H421h-3.6v-3.3h23c10.1,0,17.6,3,22.5,9.2c4.6,5.5,6.9,13.4,6.9,23.4
			C469.7,117.7,467,125.4,461.8,131.3z"/>
		<path class="st4" d="M271.4,133.6c-4.4,3.1-9.5,4.8-15.5,4.8c-8.2,0-14.7-2.9-19.5-8.5c-4.7-5.5-7-12.5-7-21.1s2.3-15.8,7-21.4
			c5-5.9,11.8-8.9,20.3-8.9c5.7,0,10.6,1.4,15,4.5c4.5,3.1,7.1,7.4,7.9,12.6h3.5c-0.7-6.2-3.7-11.2-9.1-15
			c-4.9-3.6-10.7-5.4-17.3-5.4c-9.7,0-17.4,3.3-23,10.1c-5.3,6.3-7.9,14.1-7.9,23.5c0,9.3,2.6,17,7.8,23.1
			c5.5,6.5,12.9,9.8,22.2,9.8c6.9,0,12.8-1.9,17.8-5.7c5.4-4.2,8.8-10,10.2-17.3h-3.5C279.2,125,276.1,130,271.4,133.6z"/>
		<path class="st4" d="M400.3,115c0,7.5-1.6,13.2-4.8,17c-3.5,4.2-9,6.4-16.4,6.4c-7.4,0-12.8-2.2-16.3-6.4c-3.3-3.8-4.8-9.5-4.8-17
			V75.1h-3.6v39.8c0,8.5,1.9,15,5.8,19.6c4.1,4.8,10.4,7.2,18.9,7.2c8.6,0,14.9-2.5,19-7.3c3.8-4.5,5.8-11,5.8-19.5V75.1h-3.6V115z"
			/>
		<path class="st4" d="M440.3,75.1h-23v3.3h3.6h9.3h9.8c9.1,0,15.8,2.7,20.2,8c3.8,4.8,5.9,12,5.9,21.4c0,9-2.4,16.1-7,21.3
			c-4.8,5.3-11.8,8-20.8,8h-8.1H421h-3.6v3.3h21.3c9.9,0,17.6-3.1,23.1-9.1c5.2-5.9,7.9-13.6,7.9-23.5c0-10.1-2.3-17.9-6.9-23.4
			C457.9,78.2,450.4,75.1,440.3,75.1z"/>
		<path class="st4" d="M340.8,121.3c-0.6-6.8-4.5-10.9-11.4-12.3v-0.2c4-0.9,7.2-2.7,9.5-5.7c2.2-2.9,3.3-6.4,3.3-10.4
			c0-5.7-1.8-10-5.4-13c-3.7-3.1-8.6-4.6-14.9-4.6h-30.5v3.3h7h7.1h16.1c5.9,0,10.1,1.2,13.1,3.7c2.6,2.4,3.9,5.9,3.9,10.6
			c0,4.3-1.5,7.8-4.2,10.3c-3,2.7-7.2,4.1-12.7,4.1h-16.2h-7.1h-3.6v33.2h3.6v-29.9h23.4c4.5,0,8,0.8,10.6,2.5
			c2.9,1.8,4.6,4.8,4.9,9.1l0.8,9.4c0.4,3.7,1.1,6.7,2.4,9h3.9c-1.6-2.4-2.5-5.6-2.8-9.6L340.8,121.3z"/>
		<rect x="417.4" y="112.1" class="st4" width="3.3" height="17.3"/>
	</g>
</g>
</svg>
